<svg width="71" height="78" viewBox="0 0 71 78" fill="none" xmlns="http://www.w3.org/2000/svg">
<path d="M11.9366 53.5824C11.7883 53.5824 11.6399 53.5555 11.4916 53.5015C11.0195 53.3127 10.7093 52.8542 10.7093 52.3552V44.1284H7.89066C7.20285 44.1284 6.6499 43.5754 6.6499 42.8876V8.24076C6.6499 7.55295 7.20285 7 7.89066 7H45.1C45.7878 7 46.3407 7.55295 46.3407 8.24076V12.7992C46.3407 13.487 45.7878 14.04 45.1 14.04C44.4122 14.04 43.8592 13.487 43.8592 12.7992V9.46803H9.11793V41.6469H11.9231C12.6109 41.6469 13.1639 42.1998 13.1639 42.8876V49.1858L19.7183 42.0515C19.9476 41.7952 20.2848 41.6469 20.6219 41.6469H22.9281C23.6159 41.6469 24.1689 42.1998 24.1689 42.8876C24.1689 43.5754 23.6159 44.1284 22.9281 44.1284H21.1749L12.8537 53.1913C12.6109 53.4476 12.2873 53.5959 11.9501 53.5959L11.9366 53.5824Z" fill="#4285F4"/>
<path d="M60.0429 62.5643C59.6922 62.5643 59.3685 62.4159 59.1258 62.1597L50.3191 52.355H26.6368C25.9489 52.355 25.396 51.802 25.396 51.1142V46.1916C25.396 45.5038 25.9489 44.9509 26.6368 44.9509C27.3246 44.9509 27.8775 45.5038 27.8775 46.1916V49.8734H50.872C51.2227 49.8734 51.5598 50.0218 51.7891 50.278L58.8291 58.1272L58.883 51.1007C58.883 50.4264 59.436 49.8734 60.1238 49.8734H62.6188V17.7081H47.878C47.1902 17.7081 46.6373 17.1551 46.6373 16.4673C46.6373 15.7795 47.1902 15.2266 47.878 15.2266H63.8596C64.5474 15.2266 65.1003 15.7795 65.1003 16.4673V51.1142C65.1003 51.802 64.5474 52.355 63.8596 52.355H61.3511L61.2836 61.3505C61.2836 61.863 60.9599 62.3215 60.4879 62.4968C60.3396 62.5508 60.1912 62.5777 60.0564 62.5777L60.0429 62.5643Z" fill="#34A853"/>
<path fill-rule="evenodd" clip-rule="evenodd" d="M36.5 26.95C38.4002 26.95 39.9039 25.4299 39.9039 23.6C39.9039 21.7701 38.4002 20.25 36.5 20.25C34.5998 20.25 33.0962 21.7701 33.0962 23.6C33.0962 25.4299 34.5998 26.95 36.5 26.95ZM36.5 29.2C39.6225 29.2 42.1539 26.6928 42.1539 23.6C42.1539 20.5072 39.6225 18 36.5 18C33.3775 18 30.8462 20.5072 30.8462 23.6C30.8462 26.6928 33.3775 29.2 36.5 29.2ZM38.405 33.05H34.1951C30.9966 33.05 28.25 35.7765 28.25 39.3333C28.25 39.4783 28.3046 39.5893 28.3729 39.6605C28.4397 39.73 28.505 39.75 28.561 39.75H38.525C38.525 39.75 39.5 39.8965 39.5 40.875C39.5 41.8535 38.525 42 38.525 42H28.561C27.1466 42 26 40.8061 26 39.3333C26 34.6205 29.6691 30.8 34.1951 30.8H38.405C39.1587 30.8 39.5 31.459 39.5 31.95C39.5 32.4 39.1622 33.05 38.405 33.05ZM46.25 32.625C46.25 32.0037 45.7463 31.5 45.125 31.5C44.5037 31.5 44 32.0037 44 32.625V35.25H41.375C40.7537 35.25 40.25 35.7537 40.25 36.375C40.25 36.9963 40.7537 37.5 41.375 37.5H44V40.125C44 40.7463 44.5037 41.25 45.125 41.25C45.7463 41.25 46.25 40.7463 46.25 40.125V37.5H48.875C49.4963 37.5 50 36.9963 50 36.375C50 35.7537 49.4963 35.25 48.875 35.25H46.25V32.625Z" fill="#EB4A3D"/>
</svg>
