<svg width="52" height="52" viewBox="0 0 52 52" fill="none" xmlns="http://www.w3.org/2000/svg">
<path d="M25.8768 43.9031C25.2715 43.9031 24.7803 43.4118 24.7803 42.8066V20.7718C24.7803 20.7718 24.7803 20.6928 24.7803 20.649C24.8417 14.2192 30.096 9 36.5433 9C37.1485 9 37.6398 9.49122 37.6398 10.0965V32.605C37.6398 33.2102 37.1485 33.7014 36.5433 33.7014H35.8679C31.6837 33.9997 28.7715 37.0435 28.0872 41.8592C27.9908 42.9908 27.0522 43.8768 25.9206 43.9031C25.9031 43.9031 25.8855 43.9031 25.868 43.9031H25.8768ZM26.9732 20.8858V37.8067C28.5609 34.2014 31.5872 31.9032 35.4556 31.5436V11.2544C30.6925 11.7982 26.982 15.8596 26.982 20.763C26.982 20.8069 26.982 20.842 26.982 20.8858H26.9732Z" fill="#EA4335"/>
<path d="M20.877 42.9203C20.7805 42.9203 20.684 42.9115 20.5963 42.8852C17.0174 41.9291 9.90348 40.008 9.90348 40.008C8.81578 39.7186 8 38.6484 8 37.5256V17.3241C8 16.6838 8.27193 16.1048 8.75438 15.7364C9.22805 15.368 9.85963 15.254 10.4824 15.4206L11.9736 15.8329C12.5613 15.9908 12.9034 16.596 12.7456 17.175C12.5877 17.7539 11.9824 18.1048 11.4035 17.9469L10.2017 17.6224V37.5256C10.2017 37.6572 10.3596 37.8589 10.4824 37.894C10.4824 37.894 17.5964 39.8063 21.1753 40.7712C21.763 40.9291 22.1051 41.5256 21.9472 42.1133C21.8156 42.6045 21.377 42.929 20.8858 42.929L20.877 42.9203Z" fill="#FBBC04"/>
<path d="M22.0713 37.3242C21.7642 37.3242 21.466 37.2014 21.2467 36.9558C19.3081 34.7453 18.8345 34.2102 15.8257 33.7014H15.2029C14.5977 33.7014 14.1064 33.2102 14.1064 32.605V10.0965C14.1064 9.49122 14.5977 9 15.2029 9C19.0362 9 21.773 10.3684 24.3519 13.5613C24.7291 14.035 24.6589 14.7192 24.1853 15.1052C23.7116 15.4824 23.0274 15.4122 22.6414 14.9385C20.7292 12.5614 18.8783 11.4649 16.2906 11.2368V31.5611C19.7994 32.1664 20.6941 33.0172 22.8783 35.5084C23.2818 35.9646 23.2291 36.6575 22.7818 37.0523C22.5713 37.2365 22.3169 37.3242 22.0625 37.3242H22.0713Z" fill="#4285F4"/>
<path d="M30.3932 43.0514C29.9108 43.0514 29.4634 42.7269 29.3318 42.2356C29.1739 41.6479 29.5248 41.0514 30.1037 40.8936C33.5247 39.9813 41.4106 37.6918 41.4896 37.6655C41.6387 37.6304 41.7966 37.4199 41.7966 37.2883V17.3939L40.6738 17.7009C40.0861 17.8588 39.4896 17.5167 39.3317 16.9289C39.1738 16.3412 39.5159 15.7448 40.1036 15.5869L41.5159 15.2009C42.1387 15.0342 42.7702 15.1483 43.2439 15.5167C43.7176 15.8851 43.9983 16.464 43.9983 17.1044V37.3059C43.9983 38.4287 43.1825 39.4988 42.0948 39.7883C42.0334 39.8058 34.1212 42.0953 30.6827 43.0163C30.5862 43.0426 30.4897 43.0514 30.402 43.0514H30.3932Z" fill="#34A853"/>
</svg>
