<svg width="52" height="52" viewBox="0 0 52 52" fill="none" xmlns="http://www.w3.org/2000/svg">
<path d="M43.28 26.4096C43.28 25.1326 43.165 23.9046 42.953 22.7266H26V29.6976H35.687C35.262 31.9396 33.985 33.8376 32.071 35.1146V39.6466H37.913C41.316 36.5046 43.28 31.8916 43.28 26.4096Z" fill="#4285F4"/>
<path d="M25.9997 43.9995C30.8597 43.9995 34.9347 42.3955 37.9127 39.6465L32.0707 35.1145C30.4667 36.1945 28.4207 36.8485 25.9997 36.8485C21.3197 36.8485 17.3437 33.6905 15.9197 29.4355H9.92969V34.0835C12.8937 39.9575 18.9647 43.9995 25.9997 43.9995Z" fill="#34A853"/>
<path d="M15.92 29.4206C15.5458 28.319 15.3523 27.164 15.347 26.0006C15.347 24.8056 15.56 23.6606 15.92 22.5806V17.9336H9.93C8.65959 20.4328 7.99826 23.197 8 26.0006C8 28.9136 8.704 31.6456 9.93 34.0676L14.595 30.4356L15.92 29.4206Z" fill="#FBBC05"/>
<path d="M25.9997 15.167C28.6497 15.167 31.0067 16.084 32.8897 17.851L38.0437 12.696C34.9177 9.784 30.8597 8 25.9997 8C18.9637 8 12.8927 12.042 9.92969 17.933L15.9197 22.58C17.3437 18.325 21.3197 15.167 25.9997 15.167Z" fill="#EA4335"/>
</svg>
