<svg width="196" height="216" viewBox="0 0 196 216" fill="none" xmlns="http://www.w3.org/2000/svg">
<path fill-rule="evenodd" clip-rule="evenodd" d="M218.604 117.961C215.204 121.69 209.245 122.06 205.295 118.787C173.817 92.7128 132.619 78.9974 90.8597 81.102C85.6576 81.3644 81.1757 77.5602 80.8493 72.6053C80.5228 67.6503 84.475 63.4212 89.6767 63.1591C136.387 60.8046 182.419 76.1367 217.604 105.282C221.556 108.555 222.003 114.231 218.604 117.961Z" fill="#4285F4"/>
<path fill-rule="evenodd" clip-rule="evenodd" d="M154.734 132.543C152.508 136.981 146.903 138.825 142.216 136.661C108.626 121.158 69.3562 116.67 30.7569 126.659C25.763 127.951 20.5721 125.136 19.1628 120.371C17.7535 115.606 20.6594 110.695 25.6537 109.403C68.7957 98.2384 112.736 103.263 150.277 120.59C154.965 122.754 156.96 128.105 154.734 132.543Z" fill="#EB4A3D"/>
<path d="M69.6486 73.6166C71.196 66.8461 66.669 60.1076 59.5365 58.5664C52.404 57.0252 45.3677 61.2644 43.8203 68.0349C42.2729 74.8054 46.8003 81.5435 53.9324 83.0851C61.0648 84.6263 68.1012 80.3871 69.6486 73.6166Z" fill="#4285F4"/>
</svg>
