
<svg width="171" height="225" viewBox="0 0 171 225" fill="none" xmlns="http://www.w3.org/2000/svg">
<g id="Group">
<path id="Vector" fill-rule="evenodd" clip-rule="evenodd" d="M219.193 117.418C215.948 121.47 210.032 122.124 205.981 118.88C173.696 93.0277 132.198 80.5357 90.7234 84.6113C85.5567 85.1192 80.9568 81.3426 80.449 76.1761C79.9413 71.0095 83.7177 66.4098 88.8839 65.9022C135.276 61.343 181.644 75.3085 217.731 104.205C221.783 107.45 222.438 113.365 219.193 117.418Z" fill="#3CAB5A"/>
<path id="Vector_2" fill-rule="evenodd" clip-rule="evenodd" d="M155.039 136.928C152.978 141.693 147.445 143.884 142.68 141.823C108.536 127.052 69.1218 124.114 30.9121 136.359C25.9687 137.943 20.6766 135.22 19.0922 130.276C17.5077 125.333 20.2308 120.041 25.1747 118.456C67.8811 104.77 111.983 108.06 150.144 124.569C154.909 126.63 157.1 132.163 155.039 136.928Z" fill="#FBBC04"/>
<path id="Vector_3" d="M68.7944 79.7869C70.0922 72.5952 65.3146 65.7125 58.1225 64.4148C50.9305 63.117 44.0482 67.895 42.7504 75.0868C41.4526 82.2785 46.2306 89.1608 53.4223 90.4589C60.6143 91.7567 67.4966 86.9787 68.7944 79.7869Z" fill="#3CAB5A"/>
</g>
</svg>
