<svg width="304" height="255" viewBox="0 0 304 255" fill="none" xmlns="http://www.w3.org/2000/svg">
<path d="M215.406 255C200.133 255 185.331 252.192 172.202 246.84C168.321 248.295 164.369 249.563 160.395 250.628C149.582 253.528 138.468 255 127.361 255C113.457 254.998 99.7186 252.724 86.5228 248.235C73.5477 243.822 61.4264 237.386 50.4917 229.108C39.4359 220.733 29.8869 210.698 22.1132 199.275C14.0682 187.455 8.09875 174.407 4.37209 160.487C-0.0735472 143.876 -1.1359 126.877 1.21722 109.965C3.48756 93.6419 8.82997 78.099 17.0973 63.7688C25.3647 49.4385 36.143 37.0337 49.1365 26.9022C62.5991 16.4044 77.8446 8.82382 94.4483 4.37051C105.265 1.47012 116.382 0 127.49 0C141.386 0 155.125 2.27493 168.322 6.76196C181.298 11.1754 193.419 17.6109 204.354 25.8905C215.411 34.2621 224.958 44.3 232.735 55.7222C240.775 67.5368 246.743 80.5871 250.473 94.5096C253.826 107.029 255.248 119.785 254.733 132.57C284.355 143.264 303.529 165.516 303.529 190.449C303.529 226.646 264.82 255 215.406 255Z" fill="white"/>
<path d="M141.079 190.448C141.079 162.418 174.356 139.693 215.406 139.693C221.374 139.693 227.172 140.188 232.732 141.094C234.46 127.733 233.681 113.819 229.98 99.9979C214.803 43.313 156.585 9.67336 99.9442 24.8621C43.3038 40.0508 9.69018 98.3162 24.8666 155.001C40.0431 211.686 98.2625 245.326 154.903 230.137C158.061 229.291 161.136 228.29 164.147 227.181C149.944 217.937 141.079 204.904 141.079 190.448Z" fill="#91B2DD"/>
<path d="M154.9 115.181C149.6 96.5141 142.749 78.8726 135.002 63.8203C146.919 58.8933 157.61 52.9377 166.67 46.3367C180.134 59.5203 190.785 75.8388 197.708 93.8912C185.188 101.853 170.76 109.092 154.9 115.181ZM126.584 124.37C117.358 126.844 108.151 128.832 99.0655 130.335C93.884 109.826 91.3623 91.3924 90.6571 75.94C97.8406 74.9098 105.128 73.429 112.424 71.4729C119.784 69.4984 126.831 67.1208 133.516 64.4289C141.261 79.4474 148.108 97.0828 153.399 115.753C144.842 118.98 135.881 121.877 126.584 124.37ZM113.195 177.048C96.3858 179.811 80.1608 180.762 65.4381 179.802C60.0849 169.815 55.7681 158.971 52.7067 147.536C51.603 143.414 50.7292 139.296 50.0317 135.197C52.8968 135.315 55.7957 135.383 58.7329 135.383C71.2818 135.383 84.4455 134.267 97.8728 132.119C98.138 133.149 98.3971 134.179 98.673 135.209C102.619 149.948 107.569 164.14 113.195 177.048ZM128.401 206.053C130.876 209.933 133.337 213.399 135.73 216.419C123.573 218.738 110.975 220.069 99.0716 220.302C98.0016 219.483 96.9346 218.648 95.8784 217.771C84.2155 208.09 74.1899 195.673 66.3165 181.429C69.7841 181.634 73.3084 181.768 76.9262 181.768C88.6428 181.768 101.087 180.671 113.851 178.554C118.337 188.669 123.237 197.963 128.401 206.053ZM52.8616 76.9165C57.554 77.4132 62.3951 77.6692 67.3574 77.6692C74.3907 77.6692 81.6601 77.1633 89.0475 76.1715C89.8584 93.0787 92.7404 111.776 97.4758 130.581C80.9365 133.218 64.8341 134.221 49.7757 133.571C46.6177 113.532 48.1293 94.0199 52.8616 76.9165ZM100.421 26.641C100.769 26.5475 101.138 26.5015 101.526 26.5015C106.91 26.5015 115.976 35.3774 125.155 49.7905C127.769 53.8943 130.311 58.3292 132.771 63.0139C126.188 65.6522 119.253 67.9869 112.008 69.9292C104.825 71.8546 97.6521 73.314 90.5805 74.3365C89.5043 46.0791 94.5708 28.2092 100.421 26.641ZM199.643 94.4921C207.734 89.2585 215.009 83.7183 221.359 77.9911C221.117 77.5282 220.873 77.0652 220.624 76.6068C214.342 82.2942 207.127 87.8022 199.085 93.0082C192.106 74.9482 181.435 58.6128 167.971 45.3755C172.357 42.0949 176.334 38.6611 179.867 35.126C179.406 34.8624 178.934 34.6171 178.468 34.3611C175.012 37.7796 171.129 41.1016 166.854 44.2794C164.015 41.5569 161.068 38.9539 157.996 36.5164C149.479 29.7591 140.598 24.6512 131.89 21.3123C130.223 21.2418 128.552 21.2173 126.875 21.2265C136.82 24.3507 147.149 29.9507 157.003 37.7689C159.961 40.1174 162.805 42.6177 165.546 45.236C156.597 51.7113 146.033 57.5611 134.258 62.4069C131.753 57.6317 129.165 53.1124 126.503 48.932C116.121 32.6319 105.972 23.5014 100.005 25.0973C94.0434 26.6962 89.814 39.6851 88.9678 58.9975C88.7501 63.9536 88.7669 69.1673 88.9846 74.5618C76.5614 76.2405 64.4953 76.5057 53.3076 75.3452C58.0139 59.157 65.5991 45.2222 74.7877 35.1996C73.336 36.0274 71.9057 36.8828 70.5015 37.775C64.6287 45.026 59.4902 53.8912 55.4906 64.0058C54.0465 67.6573 52.7941 71.3901 51.695 75.1735C47.0638 74.6324 42.5829 73.8536 38.3075 72.8112C37.7556 72.6763 37.2283 72.523 36.6856 72.3804C36.3974 72.8557 36.1 73.3248 35.8195 73.803C36.5216 73.9916 37.2114 74.1893 37.9304 74.3641C42.1905 75.4035 46.6499 76.1868 51.2596 76.7341C46.2268 94.9183 45.1537 114.384 48.1339 133.496C39.2196 133.037 30.6748 132.01 22.6573 130.368C22.1882 130.272 21.7467 130.158 21.2822 130.057C21.296 130.607 21.319 131.158 21.3405 131.708C21.6777 131.78 21.9966 131.865 22.3369 131.934C30.5399 133.614 39.2763 134.67 48.4006 135.122C49.1242 139.425 50.0271 143.708 51.163 147.949C54.1631 159.156 58.3542 169.807 63.5418 179.652C59.2265 179.319 55.0323 178.84 51.0097 178.173C43.6913 176.96 37.1807 175.223 31.5087 173.036C31.8322 173.722 32.1372 174.423 32.476 175.101C37.8844 177.06 43.9795 178.63 50.7491 179.752C55.135 180.477 59.7186 180.989 64.4432 181.323C72.4837 196.109 82.8037 208.996 94.8575 219C95.4109 219.46 95.9704 219.894 96.5269 220.337C91.1385 220.373 85.9095 220.184 80.961 219.746C78.2446 219.506 75.6523 219.195 73.1858 218.82C74.4152 219.551 75.6631 220.253 76.9216 220.935C78.194 221.084 79.4878 221.222 80.82 221.338C85.4419 221.748 90.303 221.948 95.3128 221.948C96.3705 221.948 97.4528 221.91 98.5228 221.892C104.967 226.773 111.642 230.619 118.36 233.391C120.193 233.547 122.037 233.651 123.889 233.711C116.233 231.174 108.564 227.207 101.166 221.846C112.824 221.496 125.071 220.132 136.875 217.832C143.33 225.663 149.215 230.079 153.445 230.079C153.934 230.079 154.398 230.021 154.84 229.901C156.842 229.365 158.661 227.479 160.227 224.447C159.796 224.122 159.384 223.786 158.967 223.455C157.587 226.242 156.039 227.925 154.427 228.358C151.406 229.184 145.754 225.896 138.652 217.463C142.559 216.669 146.415 215.78 150.172 214.786C149.807 214.331 149.465 213.865 149.12 213.402C145.325 214.392 141.448 215.297 137.505 216.083C135.061 213.056 132.463 209.449 129.748 205.193C124.694 197.274 119.893 188.183 115.488 178.295C123.438 176.923 131.506 175.15 139.6 172.981C142.023 172.331 144.409 171.644 146.778 170.939C147.207 170.233 147.664 169.539 148.139 168.851C145.191 169.751 142.217 170.623 139.187 171.435C131.002 173.63 122.85 175.41 114.82 176.784C109.16 163.853 104.181 149.603 100.217 134.796C99.9531 133.813 99.7139 132.847 99.4625 131.874C108.558 130.365 117.768 128.389 126.999 125.914C136.297 123.419 145.26 120.522 153.823 117.291C154.093 118.261 154.368 119.228 154.63 120.203C157.97 132.682 160.314 144.418 161.878 155.255C162.35 154.919 162.825 154.585 163.311 154.258C161.732 143.435 159.407 131.866 156.175 119.791C155.899 118.764 155.611 117.744 155.326 116.722C171.215 110.622 185.682 103.363 198.264 95.3689C199.731 99.3286 201.041 103.357 202.14 107.463C205.043 118.305 206.688 129.249 207.154 140.012C207.688 139.972 208.224 139.939 208.762 139.907C208.287 129.039 206.615 117.991 203.685 107.05C202.543 102.785 201.176 98.6005 199.643 94.4921ZM233.239 118.948C227.478 126.096 219.596 133.168 210.027 139.841C210.953 139.795 211.883 139.761 212.818 139.738C221.109 133.747 228.067 127.45 233.42 121.068C233.376 120.363 233.296 119.654 233.239 118.948Z" fill="#567DBF"/>
<path d="M198.896 88.0781C192.896 66.4723 184.725 54.2468 175.849 53.6566C170.873 53.3132 166.089 56.7348 162.733 62.9158C162.537 62.8928 162.345 62.856 162.143 62.856C159.385 62.856 157.148 65.0941 157.148 67.855C157.148 70.6144 159.385 72.8525 162.143 72.8525C164.901 72.8525 167.137 70.6144 167.137 67.855C167.137 65.876 165.978 64.1805 164.312 63.3711C167.334 57.9581 171.459 54.9627 175.743 55.2509C180.456 55.5652 189.464 60.2959 197.256 88.1379C195.008 88.6253 193.322 90.6228 193.322 93.0173C193.322 95.7782 195.557 98.0164 198.317 98.0164C201.074 98.0164 203.311 95.7782 203.311 93.0173C203.311 90.4557 201.378 88.3693 198.896 88.0781Z" fill="white"/>
<path d="M108.358 187.044C105.6 187.044 103.364 189.282 103.364 192.041C103.364 192.561 103.465 193.051 103.612 193.52C93.3977 198.156 84.0956 198.967 75.9018 195.924C59.9205 189.99 49.8872 170.578 42.8754 152.89C44.3516 152.021 45.3527 150.433 45.3527 148.595C45.3527 145.836 43.1176 143.597 40.3582 143.597C37.6004 143.597 35.3638 145.836 35.3638 148.595C35.3638 151.356 37.6004 153.594 40.3582 153.594C40.7139 153.594 41.0588 153.554 41.3914 153.484C48.529 171.487 58.7923 191.276 75.3453 197.422C78.77 198.694 82.3694 199.329 86.1329 199.329C91.831 199.329 97.9077 197.848 104.303 194.941C105.209 196.208 106.682 197.04 108.358 197.04C111.116 197.04 113.352 194.802 113.352 192.041C113.352 189.282 111.116 187.044 108.358 187.044Z" fill="white"/>
<path d="M190.187 119.502C189.401 119.502 188.665 119.701 188.003 120.024C163.135 86.6023 111.857 65.3629 71.6055 85.0172C70.6949 83.8123 69.2631 83.0213 67.6351 83.0213C64.8772 83.0213 62.6406 85.2594 62.6406 88.0188C62.6406 90.7796 64.8772 93.0178 67.6351 93.0178C70.3929 93.0178 72.6295 90.7796 72.6295 88.0188C72.6295 87.4623 72.5176 86.9349 72.349 86.4352C111.857 67.1718 162.221 88.0739 186.691 120.936C185.768 121.844 185.193 123.104 185.193 124.499C185.193 127.26 187.43 129.498 190.187 129.498C192.945 129.498 195.182 127.26 195.182 124.499C195.182 121.74 192.945 119.502 190.187 119.502Z" fill="white"/>
<path d="M190.763 190.539L206.341 181.537C210.008 179.419 211.263 174.728 209.146 171.058C207.031 167.39 202.343 166.131 198.676 168.251L171.757 183.805L190.763 190.539Z" fill="#EA4435"/>
<path d="M202.018 213.675C204.667 213.675 207.244 212.298 208.663 209.838C210.78 206.169 209.523 201.477 205.858 199.358L178.939 183.805C175.272 181.685 170.584 182.943 168.467 186.613C166.351 190.282 167.607 194.974 171.274 197.093L198.193 212.646C199.399 213.344 200.718 213.675 202.018 213.675Z" fill="#567DBF"/>
<path d="M228.795 213.675C230.095 213.675 231.413 213.344 232.62 212.646L259.539 197.093L240.775 190.217L224.955 199.358C221.289 201.477 220.032 206.169 222.149 209.838C223.569 212.298 226.146 213.675 228.795 213.675Z" fill="#F9BC15"/>
<path d="M255.699 198.121C258.348 198.121 260.925 196.746 262.345 194.284C264.462 190.616 263.205 185.923 259.539 183.805L232.62 168.251C228.954 166.133 224.267 167.39 222.149 171.058C220.033 174.728 221.289 179.419 224.956 181.538L251.875 197.093C253.081 197.79 254.399 198.121 255.699 198.121Z" fill="#00A14F"/>
<path d="M124.896 107.37C124.896 104.609 122.659 102.373 119.902 102.373C117.144 102.373 114.907 104.609 114.907 107.37C114.907 110.131 117.144 112.368 119.902 112.368C119.989 112.368 120.07 112.348 120.158 112.343C122.773 131.838 112.128 155.87 100.693 161.708C93.6187 165.32 85.8035 163.203 77.9026 155.604C78.5464 154.764 78.9435 153.724 78.9435 152.582C78.9435 149.823 76.7069 147.585 73.949 147.585C71.1897 147.585 68.9546 149.823 68.9546 152.582C68.9546 155.343 71.1897 157.581 73.949 157.581C74.9915 157.581 75.9572 157.259 76.7574 156.713C83.2251 162.96 88.963 165.033 93.7122 165.033C96.6907 165.033 99.2815 164.224 101.42 163.132C115.33 156.03 123.878 129.758 121.689 112.024C123.561 111.304 124.896 109.498 124.896 107.37Z" fill="white"/>
</svg>
