<svg width="70" height="70" viewBox="0 0 70 70" fill="none" xmlns="http://www.w3.org/2000/svg">
<g clip-path="url(#clip0_876_2352)">
<path d="M35.2734 64.0521C25.2102 64.0521 15.9641 58.9775 10.5597 50.4768C9.90031 49.4447 10.2014 48.0542 11.2478 47.3948C12.2799 46.7354 13.6704 47.0364 14.3299 48.0829C18.9171 55.2934 26.7584 59.5939 35.2878 59.5939C43.8171 59.5939 51.6584 55.2791 56.2457 48.0685C56.9051 47.0364 58.2813 46.721 59.3277 47.3804C60.3598 48.0398 60.6752 49.416 60.0158 50.4625C54.6115 58.9775 45.3653 64.0521 35.2878 64.0521H35.2734Z" fill="#FBBC05"/>
<path d="M62.0557 40.9448C61.9552 40.9448 61.8406 40.9448 61.726 40.9161C60.5075 40.7441 59.6617 39.6116 59.8481 38.3932C60.0201 37.2033 60.1061 35.9849 60.1061 34.7807C60.1061 29.0323 58.0992 23.4273 54.4437 18.9978C50.8313 14.6256 45.814 11.6009 40.295 10.4684C39.0909 10.2247 38.3168 9.04922 38.5605 7.83074C38.8041 6.61226 39.9796 5.8525 41.1981 6.0962C47.7062 7.42936 53.641 10.9988 57.8985 16.1594C62.2134 21.3774 64.5786 28.0002 64.5786 34.7807C64.5786 36.1999 64.4783 37.6334 64.2776 39.0382C64.1199 40.142 63.1595 40.9448 62.07 40.9448H62.0557Z" fill="#34A853"/>
<path d="M8.50864 40.9456C7.41917 40.9456 6.47306 40.1429 6.30104 39.0391C6.10035 37.6342 6 36.2007 6 34.7815C6 20.7905 15.9486 8.706 29.6529 6.03967C30.8571 5.81031 32.0325 6.59874 32.2619 7.80289C32.4913 9.00704 31.7028 10.1825 30.4987 10.4119C18.8872 12.6768 10.4582 22.9121 10.4582 34.7672C10.4582 35.9713 10.5442 37.1898 10.7162 38.3796C10.8883 39.5981 10.0568 40.7306 8.83835 40.9026C8.72367 40.917 8.62332 40.9313 8.50864 40.9313V40.9456Z" fill="#4285F4"/>
<path d="M49.8123 26.875V35.875C49.813 36.0971 49.7497 36.3144 49.6305 36.4996C49.5113 36.6848 49.3414 36.8296 49.1424 36.9156C49.0075 36.9707 48.8637 36.9993 48.7186 37C48.4281 36.9987 48.1492 36.883 47.9393 36.6766L44.3436 32.9641L36.3729 41.1766C36.1655 41.3878 35.8854 41.5063 35.5936 41.5063C35.3017 41.5063 35.0216 41.3878 34.8143 41.1766L30.1248 36.3391L21.0604 45.6766C20.8504 45.883 20.5715 45.9987 20.2811 46C19.9912 45.9959 19.7132 45.8806 19.5018 45.6766C19.2964 45.4633 19.1812 45.1752 19.1812 44.875C19.1812 44.5748 19.2964 44.2867 19.5018 44.0734L29.3455 33.9484C29.5529 33.7372 29.8329 33.6187 30.1248 33.6187C30.4167 33.6187 30.6967 33.7372 30.9041 33.9484L35.5936 38.7859L42.7986 31.375L39.1893 27.6766C39.0409 27.5139 38.9403 27.3114 38.8992 27.0924C38.858 26.8734 38.878 26.6469 38.9568 26.4391C39.042 26.2354 39.1831 26.0617 39.3628 25.9393C39.5425 25.8169 39.753 25.7511 39.9686 25.75H48.7186C49.0086 25.75 49.2868 25.8685 49.492 26.0795C49.6971 26.2905 49.8123 26.5766 49.8123 26.875Z" fill="#EB4A3D"/>
</g>
<defs>
<clipPath id="clip0_876_2352">
<rect width="70" height="70" fill="white"/>
</clipPath>
</defs>
</svg>
