<svg xmlns="http://www.w3.org/2000/svg" width="25" height="26" viewBox="0 0 25 26" fill="none">
  <path fill-rule="evenodd" clip-rule="evenodd" d="M0 7.40254C0 3.59648 3.09648 0.5 6.90254 0.5H18.0976C21.9036 0.5 25 3.59648 25 7.40254V18.5976C25 22.4036 21.9036 25.5 18.0976 25.5H6.90254C3.09648 25.5 0 22.4036 0 18.5976V7.40254ZM7.53643 13C7.53643 15.7369 9.76309 17.9636 12.5 17.9636C15.2369 17.9636 17.4636 15.7369 17.4636 13C17.4636 10.2631 15.2369 8.03643 12.5 8.03643C9.76309 8.03643 7.53643 10.2631 7.53643 13ZM5.92764 13C5.92764 9.37592 8.87592 6.42764 12.5 6.42764C16.1241 6.42764 19.0724 9.37592 19.0724 13C19.0724 16.6241 16.1241 19.5724 12.5 19.5724C8.87592 19.5724 5.92764 16.6241 5.92764 13ZM20.506 3.15117C21.4588 3.15117 22.2311 3.92351 22.2311 4.87624C22.2311 5.829 21.4588 6.60134 20.506 6.60134C19.5533 6.60134 18.7809 5.829 18.7809 4.87624C18.7809 3.92351 19.5533 3.15117 20.506 3.15117Z" fill="#202124"/>
</svg>