<svg width="71" height="78" viewBox="0 0 71 78" fill="none" xmlns="http://www.w3.org/2000/svg">
<g clip-path="url(#clip0_876_2336)">
<path d="M40.21 70.1795H31.2621C30.1964 70.1795 29.3169 69.3168 29.3169 68.2343C29.3169 67.1517 30.1795 66.2891 31.2621 66.2891H40.21C41.2756 66.2891 42.1552 67.1517 42.1552 68.2343C42.1552 69.3168 41.2925 70.1795 40.21 70.1795Z" fill="#696969"/>
<path d="M42.7466 64.949H28.7582C27.6925 64.949 26.813 64.0863 26.813 63.0038C26.813 61.9212 27.6756 61.0586 28.7582 61.0586H42.7466C43.8123 61.0586 44.6918 61.9212 44.6918 63.0038C44.6918 64.0863 43.8292 64.949 42.7466 64.949Z" fill="#696969"/>
<path d="M45.2729 59.7263H26.2269C25.1613 59.7263 24.2817 58.8637 24.2817 57.7811C24.2817 56.6986 25.1444 55.8359 26.2269 55.8359H45.2729C46.3385 55.8359 47.2181 56.6986 47.2181 57.7811C47.2181 58.8637 46.3554 59.7263 45.2729 59.7263Z" fill="#696969"/>
<path d="M44.9691 53.3983C43.9035 53.3983 43.0239 52.5356 43.0239 51.4531C43.0239 41.6425 46.2208 37.0248 49.0286 32.9653C51.2445 29.7684 53.1558 27.0113 53.1558 21.8692C53.1558 21.5309 53.1558 20.0931 53.1558 19.9071C53.122 18.8414 53.9677 17.945 55.0334 17.9111C56.099 17.8773 56.9955 18.723 57.0293 19.7887C57.0293 20.0762 57.0293 21.8692 57.0293 21.8861C57.0293 28.2291 54.5767 31.7643 52.2255 35.1811C49.6207 38.9531 46.9143 42.8604 46.9143 51.47C46.9143 52.5356 46.0516 53.4152 44.9691 53.4152V53.3983Z" fill="#3CAC59"/>
<path d="M53.5928 15.6969C52.8316 15.6969 52.1212 15.2571 51.7998 14.5128C49.0766 8.05141 42.7674 3.89039 35.7647 3.89039C28.762 3.89039 22.5881 7.98375 19.8141 14.3099C19.3912 15.2909 18.241 15.7476 17.26 15.3078C16.2789 14.885 15.8222 13.7348 16.262 12.7537C19.6449 5.00676 27.3073 0 35.7647 0C44.222 0 52.0366 5.10825 55.3858 13.0074C55.8086 13.9885 55.335 15.1387 54.354 15.5616C54.1002 15.663 53.8465 15.7138 53.5928 15.7138V15.6969Z" fill="#F9BD2F"/>
<path d="M26.5177 53.3995C25.4521 53.3995 24.5725 52.5369 24.5725 51.4543C24.5725 42.8617 21.8662 38.9544 19.2613 35.1655C16.8932 31.7487 14.4575 28.2135 14.4575 21.8705C14.4575 21.8536 14.4575 20.0606 14.4575 19.773C14.4913 18.7074 15.3878 17.8617 16.4704 17.8955C17.536 17.9293 18.3817 18.8258 18.3479 19.9084C18.3479 20.0944 18.3479 21.5322 18.3479 21.8705C18.3479 26.9956 20.2593 29.7697 22.4751 32.9665C25.2829 37.043 28.4798 41.6438 28.4798 51.4543C28.4798 52.52 27.6172 53.3995 26.5346 53.3995H26.5177Z" fill="#4789F1"/>
<path d="M35.7464 45.87C34.6808 45.87 33.8013 45.0073 33.8013 43.9248V24.8788C33.8013 23.8132 34.6639 22.9336 35.7464 22.9336C36.829 22.9336 37.6916 23.7962 37.6916 24.8788V43.9248C37.6916 44.9904 36.829 45.87 35.7464 45.87Z" fill="#E9463D"/>
<path d="M35.758 20.5502C36.9724 20.5502 37.9569 19.5657 37.9569 18.3513C37.9569 17.1368 36.9724 16.1523 35.758 16.1523C34.5436 16.1523 33.5591 17.1368 33.5591 18.3513C33.5591 19.5657 34.5436 20.5502 35.758 20.5502Z" fill="#E9463D"/>
</g>
<defs>
<clipPath id="clip0_876_2336">
<rect width="70" height="70" fill="white" transform="translate(0.45752)"/>
</clipPath>
</defs>
</svg>
