<svg width="183" height="246" viewBox="0 0 183 246" fill="none" xmlns="http://www.w3.org/2000/svg">
<g clip-path="url(#clip0_876_2396)">
<path fill-rule="evenodd" clip-rule="evenodd" d="M106.451 145.565C108.278 150.424 105.821 155.844 100.962 157.672C57.3313 174.083 8.92786 172.595 -33.4081 154.023C-38.162 151.937 -40.3254 146.392 -38.2399 141.638C-36.1544 136.884 -30.6099 134.721 -25.856 136.807C12.0187 153.422 55.3368 154.748 94.343 140.076C99.202 138.249 104.623 140.706 106.451 145.565Z" fill="#4285F4"/>
<path fill-rule="evenodd" clip-rule="evenodd" d="M151.715 77.4282C154.525 81.7933 153.264 87.6097 148.899 90.4194C111.19 114.692 67.7392 122.929 26.6052 116.86C21.4696 116.102 17.9205 111.324 18.6781 106.189C19.4358 101.053 24.2133 97.5042 29.3489 98.2621C66.153 103.693 104.985 96.329 138.723 74.6119C143.088 71.8022 148.905 73.0629 151.715 77.4282Z" fill="#34A853"/>
<path d="M116.774 139.061C117.381 146.343 123.778 151.755 131.061 151.147C138.343 150.54 143.755 144.143 143.147 136.86C142.539 129.578 136.143 124.166 128.86 124.774C121.577 125.382 116.166 131.778 116.774 139.061Z" fill="#4285F4"/>
</g>
<defs>
<clipPath id="clip0_876_2396">
<rect width="165.88" height="188" fill="white" transform="translate(39) rotate(30)"/>
</clipPath>
</defs>
</svg>
