<svg width="160" height="112" viewBox="0 0 160 112" fill="none" xmlns="http://www.w3.org/2000/svg">
<rect x="1.5" y="70.5" width="69" height="200" rx="34.5" transform="rotate(-90 1.5 70.5)" stroke="#E9EAED" stroke-width="3"/>
<path d="M43.6464 66.7804C42.254 65.5834 42.254 63.4275 43.6464 62.2305L71.5007 38.2861C73.4458 36.614 76.4563 37.996 76.4563 40.561L76.4563 88.4499C76.4563 91.015 73.4458 92.397 71.5007 90.7248L43.6464 66.7804Z" fill="#4285F4"/>
<rect x="73.729" y="37.1319" width="50.0025" height="54.7471" fill="#8AB4F9"/>
<path d="M122.652 91.8755C121.083 91.8552 119.816 90.4929 119.797 88.8062L119.531 65.0026C119.5 62.2168 122.631 60.7984 124.463 62.7684L146.865 86.8581C148.697 88.8281 147.378 92.1951 144.788 92.1616L122.652 91.8755Z" fill="#8AB4F9"/>
<path d="M120.096 40.2084C120.112 38.5174 121.382 37.1508 122.955 37.1335L145.198 36.8888C147.786 36.8603 149.101 40.2243 147.27 42.1923L124.8 66.3556C122.97 68.3237 119.841 66.9101 119.868 64.127L120.096 40.2084Z" fill="#8AB4F9"/>
</svg>
