<svg width="162" height="200" viewBox="0 0 162 200" fill="none" xmlns="http://www.w3.org/2000/svg">
<path fill-rule="evenodd" clip-rule="evenodd" d="M212.175 77.9379C209.995 82.3587 204.409 84.4539 199.699 82.6178C162.175 67.9877 118.903 67.5533 79.6199 81.7889C74.7263 83.5625 69.3573 81.3954 67.628 76.9487C65.8986 72.502 68.4635 67.4598 73.3568 65.6867C117.297 49.7628 165.649 50.2549 207.593 66.6079C212.303 68.4443 214.354 73.5168 212.175 77.9379Z" fill="#4285F4"/>
<path fill-rule="evenodd" clip-rule="evenodd" d="M155.319 110.248C154.462 114.974 149.635 118.317 144.538 117.715C108.008 113.398 69.2045 120.858 35.1843 141.398C30.7829 144.055 25.0177 143.003 22.3076 139.048C19.5975 135.094 20.9686 129.734 25.3704 127.076C63.3943 104.119 106.813 95.774 147.641 100.599C152.738 101.201 156.176 105.521 155.319 110.248Z" fill="#FBBC04"/>
<path d="M57.2552 81.3037C56.796 74.6376 50.542 69.7916 43.286 70.4807C36.0299 71.1698 30.52 77.1323 30.9792 83.7984C31.4384 90.4645 37.6927 95.31 44.9485 94.6214C52.2045 93.9323 57.7144 87.9698 57.2552 81.3037Z" fill="#4285F4"/>
</svg>
